<svg xmlns="http://www.w3.org/2000/svg" width="512" height="512" viewBox="0 0 512 512" role="img" aria-label="Data EDE DE monogram">
  <rect width="512" height="512" rx="104" fill="#0B57D0"/>

  <g fill="#FFFFFF">
    <path fill-rule="evenodd" d="
      M96 112
      H188
      C275 112 332 168 332 256
      C332 344 275 400 188 400
      H96
      Z

      M150 164
      H184
      C238 164 278 200 278 256
      C278 312 238 348 184 348
      H150
      Z
    "/>

    <rect x="350" y="112" width="24" height="288" rx="12"/>
    <path d="M350 112H430C442 112 450 120 450 132C450 144 442 152 430 152H350Z"/>
    <path d="M350 244H412C424 244 432 250 432 256C432 262 424 268 412 268H350Z"/>
    <path d="M350 360H430C442 360 450 368 450 380C450 392 442 400 430 400H350Z"/>
  </g>
</svg>
